#!OML:ASF F:\VICON\USERDATA\INSTALL\rory3\rory3.ASF
:FULLY-SPECIFIED
:DEGREES
94
root 3.8797 17.5265 4.1882 21.4409 -15.9175 -0.135376
lowerback -12.5259 3.96163 3.10291
upperback -13.96 4.95449 -0.0250227
thorax -7.66642 2.16958 -1.45499
lowerneck -2.25379 17.7634 13.809
upperneck 10.1238 22.4113 6.27165
head 4.21088 11.8085 1.06561
rclavicle -3.93594e-014 -1.70955e-014
rhumerus -1.67049 -26.0407 17.1313
rradius 121.485
rwrist -63.457
rhand -7.57717 -47.6544
rfingers 7.12502
rthumb 18.3156 -76.8121
lclavicle -3.93594e-014 -1.70955e-014
lhumerus 30.6225 25.2348 -21.2681
lradius 31.7881
lwrist 34.6699
lhand -24.9003 -18.7137
lfingers 7.12502
lthumb 1.6079 11.26
rfemur -0.995036 3.85975 -6.46818
rtibia -3.81667e-014
rfoot -31.3038 -21.643
rtoes 54.3048
lfemur -21.823 -0.0930331 -28.4525
ltibia 15.6664
lfoot -13.1331 9.99538
ltoes 8.76043
95
root 3.88256 17.5296 4.17992 21.4212 -15.8327 -0.15363
lowerback -12.472 3.94478 3.08951
upperback -13.9351 4.93765 0.00548295
thorax -7.67182 2.16455 -1.41918
lowerneck -2.17873 17.683 13.8011
upperneck 10.0596 22.3298 6.16922
head 4.18744 11.7603 1.02108
rclavicle -2.60408e-014 -2.34566e-014
rhumerus -1.57611 -26.0756 17.027
rradius 121.43
rwrist -63.4053
rhand -8.12585 -47.7611
rfingers 7.12502
rthumb 17.7877 -76.9676
lclavicle -2.60408e-014 -2.34566e-014
lhumerus 30.7055 25.3655 -21.0977
lradius 31.6888
lwrist 34.6408
lhand -24.5016 -18.8311
lfingers 7.12502
lthumb 1.99296 11.1394
rfemur -0.964036 3.80595 -6.41418
rtibia -1.90833e-014
rfoot -31.8177 -20.8792
rtoes 54.643
lfemur -21.8165 -0.210004 -28.3846
ltibia 15.6281
lfoot -13.0543 10.0078
ltoes 8.96782
96
root 3.88626 17.5309 4.16807 21.3728 -15.7384 0.030976
lowerback -12.4083 3.8855 2.90188
upperback -13.9337 4.87369 -0.0349891
thorax -7.71726 2.14635 -1.36745
lowerneck -2.12468 17.6478 13.8283
upperneck 10.0474 22.2987 6.08664
head 4.18671 11.7414 0.988163
rclavicle -4.06515e-014 -9.54166e-015
rhumerus -1.49084 -26.028 16.864
rradius 121.384
rwrist -63.4011
rhand -8.36252 -47.7986
rfingers 7.12502
rthumb 17.56 -77.0255
lclavicle -4.06515e-014 -9.54166e-015
lhumerus 30.7409 25.3304 -21.0273
lradius 31.6446
lwrist 34.5652
lhand -25.1563 -19.3531
lfingers 7.12502
lthumb 1.36058 10.6224
rfemur -0.923476 3.6655 -6.57273
rtibia -3.18055e-015
rfoot -31.9085 -20.8879
rtoes 54.6023
lfemur -21.8352 -0.305856 -28.5453
ltibia 15.5831
lfoot -13.0383 9.94491
ltoes 8.97314
97
root 3.88999 17.5318 4.16133 21.3905 -15.6874 0.0785633
lowerback -12.4818 3.87905 2.8773
upperback -13.8673 4.86087 -0.0789996
thorax -7.59888 2.14303 -1.3934
lowerneck -2.24565 17.627 13.9611
upperneck 10.1256 22.2493 5.94518
head 4.25965 11.7194 0.951786
rclavicle -1.45113e-014 -3.22031e-014
rhumerus -1.43663 -26.0434 16.6403
rradius 121.277
rwrist -63.3091
rhand -8.35895 -47.7788
rfingers 7.12502
rthumb 17.5634 -77.0055
lclavicle -1.45113e-014 -3.22031e-014
lhumerus 30.4697 25.0462 -21.4273
lradius 31.8486
lwrist 35.202
lhand -25.6778 -19.6646
lfingers 7.12502
lthumb 0.856959 10.3134
rfemur -0.949234 3.59234 -6.61801
rtibia 1.59028e-014
rfoot -31.6 -21.4151
rtoes 54.3833
lfemur -21.8481 -0.318929 -28.597
ltibia 15.5031
lfoot -13.036 9.89896
ltoes 8.95531
98
root 3.89316 17.5317 4.15634 21.4157 -15.6815 0.117124
lowerback -12.5067 3.8752 2.85123
upperback -13.8501 4.85444 -0.119828
thorax -7.56387 2.14082 -1.4202
lowerneck -2.36748 17.6267 14.0711
upperneck 10.2759 22.2165 5.90014
head 4.3428 11.7126 0.949161
rclavicle 5.46658e-015 5.1684e-015
rhumerus -1.38789 -26.1505 16.4337
rradius 121.182
rwrist -63.2825
rhand -7.90613 -47.7776
rfingers 7.12502
rthumb 17.9992 -76.9648
lclavicle 5.46658e-015 5.1684e-015
lhumerus 30.3382 24.9375 -21.6364
lradius 31.9861
lwrist 35.5301
lhand -25.7479 -19.5442
lfingers 7.12502
lthumb 0.789247 10.4341
rfemur -0.993696 3.55708 -6.67577
rtibia -2.22639e-014
rfoot -31.48 -21.5398
rtoes 54.3463
lfemur -21.8649 -0.239774 -28.6707
ltibia 15.4244
lfoot -12.9644 9.80668
ltoes 8.86885
99
root 3.89733 17.5319 4.15321 21.4565 -15.5704 0.152171
lowerback -12.506 3.83266 2.85671
upperback -13.8639 4.79732 -0.140931
thorax -7.57996 2.11009 -1.44989
lowerneck -2.47491 17.6924 13.9784
upperneck 10.385 22.2692 6.08613
head 4.36462 11.7497 1.02918
rclavicle 2.72335e-014 -3.57812e-015
rhumerus -1.39687 -26.3258 16.3557
rradius 121.178
rwrist -63.492
rhand -7.43677 -47.9272
rfingers 7.12502
rthumb 18.4507 -77.0722
lclavicle 2.72335e-014 -3.57812e-015
lhumerus 30.4039 25.1091 -21.4905
lradius 31.9532
lwrist 35.1782
lhand -25.6409 -19.7627
lfingers 7.12502
lthumb 0.892607 10.2152
rfemur -0.989652 3.42843 -6.69576
rtibia -1.90833e-014
rfoot -30.8261 -22.3694
rtoes 54.0429
lfemur -21.9025 -0.171347 -28.7266
ltibia 15.3738
lfoot -12.9727 9.60785
ltoes 8.97695
100
root 3.90015 17.5343 4.14579 21.5425 -15.5496 0.095169
lowerback -12.4701 3.82503 2.90877
upperback -13.8705 4.78567 -0.139734
thorax -7.60411 2.09916 -1.48067
lowerneck -2.84471 17.8014 13.7225
upperneck 10.6981 22.3141 6.4993
head 4.44826 11.7999 1.22341
rclavicle 2.25621e-014 3.97569e-015
rhumerus -1.38409 -26.3869 16.2313
rradius 121.198
rwrist -63.6006
rhand -7.38523 -48.0657
rfingers 7.12502
rthumb 18.5003 -77.206
lclavicle 2.25621e-014 3.97569e-015
lhumerus 30.1957 25.016 -21.7649
lradius 32.0471
lwrist 35.3571
lhand -25.3155 -19.9804
lfingers 7.12502
lthumb 1.20689 9.99592
rfemur -1.0982 3.39669 -6.64481
rtibia 9.54166e-015
rfoot -30.2494 -23.1791
rtoes 53.6391
lfemur -21.986 -0.152304 -28.6685
ltibia 15.3118
lfoot -12.9093 9.55458
ltoes 9.1592
101
root 3.90139 17.5371 4.13196 21.5648 -15.6957 0.082449
lowerback -12.3058 3.8517 2.81379
upperback -13.8613 4.83486 -0.142393
thorax -7.68786 2.13068 -1.43888
lowerneck -3.19802 17.8099 13.5785
upperneck 10.9644 22.2511 6.61696
head 4.55773 11.7852 1.31568
rclavicle 7.40473e-014 5.92378e-014
rhumerus -1.34095 -26.3313 16.1088
rradius 121.18
rwrist -63.4508
rhand -7.5071 -48.0634
rfingers 7.12502
rthumb 18.3831 -77.2147
lclavicle 7.40473e-014 5.92378e-014
lhumerus 30.0084 24.9018 -22.0298
lradius 32.1637
lwrist 35.86
lhand -25.006 -19.8532
lfingers 7.12502
lthumb 1.50573 10.1212
rfemur -1.27107 3.51332 -6.68849
rtibia 6.36111e-015
rfoot -30.068 -23.5729
rtoes 53.3421
lfemur -22.0571 -0.121636 -28.6697
ltibia 15.2741
lfoot -12.8382 9.64864
ltoes 9.31848
102
root 3.90388 17.5367 4.12356 21.502 -15.7587 0.171317
lowerback -12.2251 3.842 2.65879
upperback -13.8277 4.83574 -0.135331
thorax -7.70517 2.14541 -1.35029
lowerneck -2.97926 17.7615 13.5118
upperneck 10.6637 22.2661 6.4054
head 4.44428 11.7645 1.2243
rclavicle 2.37548e-014 -2.06736e-014
rhumerus -1.2258 -26.2594 16.0302
rradius 121.131
rwrist -63.3343
rhand -7.14025 -48.0619
rfingers 7.12502
rthumb 18.7359 -77.1796
lclavicle 2.37548e-014 -2.06736e-014
lhumerus 30.0106 24.9685 -21.8965
lradius 32.2084
lwrist 36.0995
lhand -25.3856 -19.5496
lfingers 7.12502
lthumb 1.13911 10.4271
rfemur -1.28678 3.55255 -6.8142
rtibia 9.54166e-015
rfoot -30.1402 -23.5453
rtoes 53.3451
lfemur -22.0594 -0.112969 -28.776
ltibia 15.2917
lfoot -12.9573 9.66705
ltoes 9.44123
103
root 3.90849 17.5346 4.12224 21.4737 -15.7481 0.176373
lowerback -12.2427 3.81963 2.65298
upperback -13.8431 4.80748 -0.0898957
thorax -7.71899 2.13359 -1.30028
lowerneck -2.50747 17.778 13.4371
upperneck 10.3509 22.3989 6.32385
head 4.27522 11.806 1.15204
rclavicle 1.87852e-014 -1.63003e-014
rhumerus -0.971258 -26.1781 15.8137
rradius 121.06
rwrist -63.2312
rhand -6.35389 -48.1023
rfingers 7.12502
rthumb 19.4921 -77.1452
lclavicle 1.87852e-014 -1.63003e-014
lhumerus 30.1071 25.1227 -21.5627
lradius 32.151
lwrist 35.7318
lhand -25.9361 -19.5239
lfingers 7.12502
lthumb 0.607461 10.455
rfemur -1.25273 3.55249 -6.83287
rtibia -3.18055e-015
rfoot -30.623 -22.8897
rtoes 53.7292
lfemur -22.072 -0.0606654 -28.814
ltibia 15.3587
lfoot -13.1153 9.60934
ltoes 9.45606
104
root 3.91452 17.5353 4.11664 21.4893 -15.6562 0.0587787
lowerback -12.1666 3.80825 2.79627
upperback -13.8684 4.78853 -0.0624561
thorax -7.78267 2.11133 -1.35732
lowerneck -2.34048 17.7926 13.4606
upperneck 10.4274 22.4374 6.37131
head 4.27183 11.8307 1.15413
rclavicle -3.56818e-014 -1.31198e-014
rhumerus -0.814371 -26.2605 15.6247
rradius 120.971
rwrist -63.1976
rhand -6.0246 -48.1235
rfingers 7.12502
rthumb 19.8087 -77.1341
lclavicle -3.56818e-014 -1.31198e-014
lhumerus 30.1955 25.2559 -21.3962
lradius 32.0704
lwrist 35.2461
lhand -25.8317 -19.9433
lfingers 7.12502
lthumb 0.708334 10.0352
rfemur -1.22889 3.52085 -6.68632
rtibia 0
rfoot -30.5813 -22.8282
rtoes 53.7387
lfemur -22.1484 0.00157237 -28.715
ltibia 15.4963
lfoot -13.0798 9.53607
ltoes 9.15172
105
root 3.92123 17.5369 4.10865 21.5148 -15.4958 -0.0516891
lowerback -12.0957 3.78045 2.961
upperback -13.8501 4.74522 -0.0581396
thorax -7.79113 2.07532 -1.44977
lowerneck -2.58407 17.8259 13.3904
upperneck 10.7629 22.4032 6.63273
head 4.37841 11.8413 1.27401
rclavicle 1.54058e-014 2.74323e-014
rhumerus -0.866713 -26.4235 15.7006
rradius 121.004
rwrist -63.4437
rhand -6.30526 -48.157
rfingers 7.12502
rthumb 19.5389 -77.1952
lclavicle 1.54058e-014 2.74323e-014
lhumerus 30.223 25.4246 -21.3555
lradius 32.0561
lwrist 35.1382
lhand -25.3285 -20.3994
lfingers 7.12502
lthumb 1.19427 9.57697
rfemur -1.18539 3.42424 -6.52413
rtibia 2.22639e-014
rfoot -30.4574 -22.9118
rtoes 53.6286
lfemur -22.2675 -0.0196599 -28.5928
ltibia 15.6819
lfoot -13.0568 9.47486
ltoes 8.90424
106
root 3.92582 17.5381 4.10578 21.5743 -15.4088 -0.177508
lowerback -12.1196 3.77257 3.08686
upperback -13.8261 4.72694 -0.02857
thorax -7.74523 2.05786 -1.48616
lowerneck -3.00277 17.8714 13.2971
upperneck 11.1922 22.3522 6.89108
head 4.53998 11.8491 1.41811
rclavicle -3.49861e-014 -3.57812e-015
rhumerus -0.927471 -26.3607 15.7468
rradius 121.103
rwrist -63.61
rhand -6.86964 -48.1924
rfingers 7.12502
rthumb 18.9962 -77.2847
lclavicle -3.49861e-014 -3.57812e-015
lhumerus 30.3155 25.7056 -21.1319
lradius 32.0326
lwrist 34.9195
lhand -25.2118 -20.4555
lfingers 7.12502
lthumb 1.307 9.52022
rfemur -1.19929 3.38053 -6.37414
rtibia 3.18055e-015
rfoot -30.4602 -22.9871
rtoes 53.6314
lfemur -22.3951 0.0126155 -28.4734
ltibia 15.8399
lfoot -13.2517 9.39832
ltoes 9.36909
